<svg xmlns="http://www.w3.org/2000/svg" xmlns:xlink="http://www.w3.org/1999/xlink" width="1400" height="366" viewBox="0 0 1400 366">
  <defs>
    <clipPath id="clip-path">
      <rect id="Rectángulo_29894" data-name="Rectángulo 29894" width="1400" height="366" transform="translate(0 55)" fill="#fff" stroke="#707070" stroke-width="1"/>
    </clipPath>
  </defs>
  <g id="Enmascarar_grupo_6" data-name="Enmascarar grupo 6" transform="translate(0 -55)" clip-path="url(#clip-path)">
    <g id="Grupo_28530" data-name="Grupo 28530" transform="translate(347 126)" opacity="0.716">
      <g id="Grupo_28529" data-name="Grupo 28529" transform="translate(-1482.357 -894.509)">
        <path id="Trazado_71177" data-name="Trazado 71177" d="M2460.525,706.193c22.035,9.921,43.583,20.9,65.518,31.039h22.731v-.011a4.393,4.393,0,0,0-2.832-4.832c-14.548-6.462-28.871-13.416-43.2-20.343-6.806-3.282-13.607-6.578-20.436-9.8-6.092-2.881-12.789-7.3-19.33-8.875-4.971-1.195-7.911,1.125-12.534,3.462-7.794,3.939-15.528,8-23.246,12.09-14.8,7.844-29.534,15.816-44.425,23.485a5.322,5.322,0,0,0-2.718,4.835h21.212C2421.014,726.877,2440.588,716.181,2460.525,706.193Z" transform="translate(36.252 10.2)" fill="#ffd3ab"/>
        <path id="Trazado_71178" data-name="Trazado 71178" d="M2483.667,730.113c-5.657-2.692-11.28-5.46-16.946-8.132-2.944-1.393-6.749-4.247-10.1-4.123-3.735.146-7.722,3.243-10.912,4.914-4.628,2.413-9.222,4.894-13.833,7.343a5.371,5.371,0,0,0-2.715,4.838h17.43q5.061-2.683,10.168-5.273,5.636,2.593,11.23,5.273h18.482v-.009A4.542,4.542,0,0,0,2483.667,730.113Z" transform="translate(40.768 12.482)" fill="#ffd3ab"/>
        <path id="Trazado_71179" data-name="Trazado 71179" d="M2340.555,716.25V695.6q25.3-12.391,50.455-25.108a5.3,5.3,0,0,0,2.715-4.839H2375.75q-17.561,8.825-35.2,17.5v-17.5h-11.114v74.1h11.114V736.6q66.493-32.623,132.585-66.07a5.309,5.309,0,0,0,2.716-4.875H2442.23Q2391.532,691.24,2340.555,716.25Z" transform="translate(31.597 7.681)" fill="#ffd3ab"/>
        <path id="Trazado_71180" data-name="Trazado 71180" d="M2312.6,739.753h11.114v-74.1H2312.6Z" transform="translate(30.049 7.681)" fill="#ffd3ab"/>
        <path id="Trazado_71181" data-name="Trazado 71181" d="M2482.307,768.508c6.83-3.229,13.631-6.519,20.433-9.8,14.333-6.929,28.656-13.882,43.2-20.347a4.393,4.393,0,0,0,2.831-4.832v-.012H2526.04c-21.932,10.143-43.481,21.119-65.518,31.039-19.934-9.985-39.507-20.681-59.256-31.039h-21.211a5.322,5.322,0,0,0,2.718,4.835c14.891,7.669,29.624,15.641,44.425,23.486,7.718,4.089,15.451,8.152,23.246,12.09,4.622,2.336,7.563,4.656,12.534,3.461C2469.517,775.811,2476.214,771.387,2482.307,768.508Z" transform="translate(36.252 13.922)" fill="#ffd3ab"/>
        <path id="Trazado_71182" data-name="Trazado 71182" d="M2467.989,733.512q-5.59,2.691-11.23,5.274-5.106-2.6-10.168-5.274h-17.43a5.374,5.374,0,0,0,2.715,4.839c4.611,2.448,9.205,4.93,13.833,7.348,3.19,1.667,7.177,4.763,10.912,4.906,3.354.128,7.158-2.73,10.1-4.12,5.666-2.674,11.289-5.438,16.945-8.132a4.544,4.544,0,0,0,2.8-4.832v-.009h-18.482Z" transform="translate(40.768 13.922)" fill="#ffd3ab"/>
        <path id="Trazado_71183" data-name="Trazado 71183" d="M2329.441,807.609h11.114v-17.5q17.638,8.668,35.2,17.5h17.974a5.3,5.3,0,0,0-2.715-4.84q-25.144-12.717-50.449-25.108V757.016q50.98,25.007,101.675,50.593h33.621a5.309,5.309,0,0,0-2.716-4.875q-66.09-33.449-132.585-66.071v-3.151h-11.114Z" transform="translate(31.597 13.922)" fill="#ffd3ab"/>
        <path id="Trazado_71184" data-name="Trazado 71184" d="M2312.6,807.609h11.114v-74.1H2312.6Z" transform="translate(30.049 13.922)" fill="#ffd3ab"/>
        <path id="Trazado_71185" data-name="Trazado 71185" d="M2460.525,841.9c22.035,9.921,43.583,20.9,65.518,31.039h22.731v-.012a4.393,4.393,0,0,0-2.832-4.832c-14.548-6.461-28.871-13.414-43.2-20.341-6.8-3.287-13.6-6.577-20.433-9.8-6.1-2.881-12.792-7.3-19.333-8.874-4.971-1.2-7.911,1.124-12.534,3.46-7.794,3.939-15.528,8-23.246,12.09-14.8,7.845-29.534,15.817-44.425,23.486a5.323,5.323,0,0,0-2.718,4.834h21.212C2421.014,862.587,2440.588,851.892,2460.525,841.9Z" transform="translate(36.252 22.681)" fill="#ffd3ab"/>
        <path id="Trazado_71186" data-name="Trazado 71186" d="M2483.667,865.823c-5.657-2.692-11.28-5.46-16.946-8.132-2.944-1.393-6.749-4.247-10.1-4.123-3.735.146-7.722,3.243-10.912,4.914-4.628,2.413-9.222,4.9-13.833,7.343a5.374,5.374,0,0,0-2.715,4.839h17.43q5.061-2.681,10.168-5.274,5.636,2.593,11.23,5.273h18.482v-.009A4.542,4.542,0,0,0,2483.667,865.823Z" transform="translate(40.768 24.963)" fill="#ffd3ab"/>
        <path id="Trazado_71187" data-name="Trazado 71187" d="M2340.555,851.96V831.313q25.3-12.391,50.455-25.107a5.3,5.3,0,0,0,2.715-4.84H2375.75q-17.561,8.827-35.2,17.5v-17.5h-11.114v74.1h11.114v-3.151q66.493-32.625,132.585-66.071a5.309,5.309,0,0,0,2.716-4.875H2442.23Q2391.532,826.954,2340.555,851.96Z" transform="translate(31.597 20.163)" fill="#ffd3ab"/>
        <path id="Trazado_71188" data-name="Trazado 71188" d="M2312.6,875.464h11.114v-74.1H2312.6Z" transform="translate(30.049 20.163)" fill="#ffd3ab"/>
        <path id="Trazado_71189" data-name="Trazado 71189" d="M2482.307,904.217c6.83-3.228,13.631-6.518,20.433-9.8,14.333-6.929,28.656-13.881,43.2-20.347a4.393,4.393,0,0,0,2.831-4.831v-.012H2526.04c-21.932,10.142-43.481,21.118-65.518,31.038-19.934-9.985-39.507-20.681-59.256-31.038h-21.211a5.322,5.322,0,0,0,2.718,4.835c14.891,7.669,29.624,15.641,44.425,23.485,7.718,4.091,15.451,8.152,23.246,12.09,4.622,2.336,7.563,4.656,12.534,3.462C2469.517,911.521,2476.214,907.1,2482.307,904.217Z" transform="translate(36.252 26.404)" fill="#ffd3ab"/>
        <path id="Trazado_71190" data-name="Trazado 71190" d="M2467.989,869.223q-5.59,2.691-11.23,5.273-5.106-2.6-10.168-5.273h-17.43a5.373,5.373,0,0,0,2.715,4.837c4.611,2.449,9.206,4.93,13.833,7.349,3.19,1.666,7.177,4.763,10.912,4.905,3.354.128,7.158-2.73,10.1-4.119,5.666-2.674,11.289-5.438,16.945-8.133a4.542,4.542,0,0,0,2.8-4.831v-.009h-18.482Z" transform="translate(40.768 26.404)" fill="#ffd3ab"/>
        <path id="Trazado_71191" data-name="Trazado 71191" d="M2329.441,943.319h11.114v-17.5q17.638,8.67,35.2,17.5h17.974a5.3,5.3,0,0,0-2.72-4.837q-25.144-12.717-50.449-25.109V892.726q50.98,25.007,101.675,50.593h33.626a5.309,5.309,0,0,0-2.716-4.875q-66.09-33.447-132.585-66.07v-3.151h-11.114Z" transform="translate(31.597 26.404)" fill="#ffd3ab"/>
        <path id="Trazado_71192" data-name="Trazado 71192" d="M2312.6,943.319h11.114v-74.1H2312.6Z" transform="translate(30.049 26.404)" fill="#ffd3ab"/>
        <path id="Trazado_71193" data-name="Trazado 71193" d="M2460.525,977.614c22.035,9.922,43.583,20.9,65.518,31.039h22.731v-.012a4.392,4.392,0,0,0-2.832-4.831c-14.548-6.461-28.871-13.415-43.2-20.342-6.8-3.288-13.6-6.578-20.433-9.806-6.1-2.879-12.792-7.3-19.333-8.873-4.971-1.2-7.911,1.124-12.534,3.46-7.794,3.939-15.528,8-23.246,12.091-14.8,7.844-29.534,15.816-44.425,23.485a5.322,5.322,0,0,0-2.718,4.834h21.212C2421.014,998.3,2440.588,987.6,2460.525,977.614Z" transform="translate(36.252 35.163)" fill="#ffd3ab"/>
        <path id="Trazado_71194" data-name="Trazado 71194" d="M2483.667,1001.534c-5.657-2.691-11.28-5.46-16.946-8.132-2.944-1.393-6.749-4.246-10.1-4.123-3.735.142-7.722,3.24-10.912,4.906-4.628,2.421-9.222,4.9-13.833,7.351a5.374,5.374,0,0,0-2.715,4.839h17.43q5.061-2.683,10.168-5.274,5.636,2.593,11.23,5.273h18.482v-.005A4.544,4.544,0,0,0,2483.667,1001.534Z" transform="translate(40.768 37.445)" fill="#ffd3ab"/>
        <path id="Trazado_71195" data-name="Trazado 71195" d="M2340.555,987.672V967.024q25.3-12.389,50.455-25.107a5.3,5.3,0,0,0,2.715-4.84H2375.75q-17.561,8.827-35.2,17.5v-17.5h-11.114v74.1h11.114v-3.151q66.493-32.623,132.585-66.071a5.309,5.309,0,0,0,2.716-4.875H2442.23Q2391.532,962.665,2340.555,987.672Z" transform="translate(31.597 32.644)" fill="#ffd3ab"/>
        <path id="Trazado_71196" data-name="Trazado 71196" d="M2312.6,1011.175h11.114v-74.1H2312.6Z" transform="translate(30.049 32.644)" fill="#ffd3ab"/>
        <path id="Trazado_71197" data-name="Trazado 71197" d="M2482.307,1039.93c6.83-3.229,13.631-6.519,20.433-9.807,14.333-6.926,28.656-13.881,43.2-20.346a4.392,4.392,0,0,0,2.831-4.831v-.012H2526.04c-21.932,10.143-43.481,21.119-65.518,31.039-19.934-9.985-39.507-20.681-59.256-31.039h-21.211a5.322,5.322,0,0,0,2.718,4.835c14.891,7.669,29.624,15.641,44.425,23.485,7.718,4.091,15.451,8.153,23.246,12.091,4.622,2.336,7.563,4.656,12.534,3.46C2469.517,1047.231,2476.214,1042.808,2482.307,1039.93Z" transform="translate(36.252 38.885)" fill="#ffd3ab"/>
        <path id="Trazado_71198" data-name="Trazado 71198" d="M2467.989,1004.934q-5.59,2.691-11.23,5.274-5.106-2.6-10.168-5.274h-17.43a5.374,5.374,0,0,0,2.715,4.839c4.611,2.448,9.205,4.93,13.833,7.348,3.19,1.666,7.177,4.763,10.912,4.906,3.354.127,7.158-2.73,10.1-4.12,5.666-2.674,11.289-5.438,16.945-8.132a4.544,4.544,0,0,0,2.8-4.832v-.009h-18.482Z" transform="translate(40.768 38.885)" fill="#ffd3ab"/>
        <path id="Trazado_71199" data-name="Trazado 71199" d="M2329.441,1079.031h11.114v-17.5q17.638,8.668,35.2,17.5h17.974a5.3,5.3,0,0,0-2.715-4.84q-25.144-12.717-50.449-25.108v-20.647q50.98,25.007,101.675,50.594h33.621a5.309,5.309,0,0,0-2.716-4.875q-66.09-33.449-132.585-66.071v-3.151h-11.114Z" transform="translate(31.597 38.885)" fill="#ffd3ab"/>
        <path id="Trazado_71200" data-name="Trazado 71200" d="M2312.6,1079.031h11.114v-74.1H2312.6Z" transform="translate(30.049 38.885)" fill="#ffd3ab"/>
        <path id="Trazado_71201" data-name="Trazado 71201" d="M2545.943,1139.524c-14.547-6.464-28.87-13.418-43.2-20.346-6.806-3.282-13.607-6.578-20.436-9.8-6.092-2.88-12.789-7.3-19.33-8.874-4.971-1.195-7.911,1.125-12.534,3.461-7.794,3.939-15.528,8-23.246,12.09-14.8,7.844-29.534,15.816-44.425,23.485a5.323,5.323,0,0,0-2.718,4.834h21.212c19.748-10.357,39.322-21.053,59.259-31.042,22.035,9.921,43.583,20.9,65.518,31.039h22.731v-.012A4.392,4.392,0,0,0,2545.943,1139.524Z" transform="translate(36.252 47.645)" fill="#ffd3ab"/>
        <path id="Trazado_71202" data-name="Trazado 71202" d="M2483.667,1137.245c-5.657-2.692-11.28-5.46-16.946-8.132-2.944-1.393-6.749-4.247-10.1-4.123-3.735.146-7.722,3.243-10.912,4.914-4.628,2.413-9.222,4.894-13.833,7.344a5.371,5.371,0,0,0-2.715,4.838h17.43q5.061-2.683,10.168-5.273,5.636,2.593,11.23,5.273h18.482v-.009A4.542,4.542,0,0,0,2483.667,1137.245Z" transform="translate(40.768 49.927)" fill="#ffd3ab"/>
        <path id="Trazado_71203" data-name="Trazado 71203" d="M2473.14,1077.665a5.309,5.309,0,0,0,2.716-4.875H2442.23q-50.7,25.587-101.675,50.593v-20.647q25.3-12.391,50.455-25.108a5.3,5.3,0,0,0,2.715-4.839H2375.75q-17.561,8.825-35.2,17.5v-17.5h-11.114v74.1h11.114v-3.151Q2407.048,1111.111,2473.14,1077.665Z" transform="translate(31.597 45.126)" fill="#ffd3ab"/>
        <path id="Trazado_71204" data-name="Trazado 71204" d="M2312.6,1072.79v74.1h11.114v-74.1Z" transform="translate(30.049 45.126)" fill="#ffd3ab"/>
        <path id="Trazado_71205" data-name="Trazado 71205" d="M2151.949,1139.533c-14.892-7.669-29.625-15.641-44.426-23.485-7.717-4.091-15.45-8.152-23.245-12.09-4.623-2.337-7.564-4.66-12.535-3.458-6.541,1.573-13.237,6-19.328,8.878-6.829,3.228-13.631,6.518-20.433,9.8-14.334,6.927-28.656,13.881-43.2,20.346a4.392,4.392,0,0,0-2.832,4.831v.009h22.735c21.932-10.143,43.481-21.119,65.518-31.039,19.932,9.986,39.505,20.682,59.254,31.039h21.211A5.33,5.33,0,0,0,2151.949,1139.533Z" transform="translate(0 47.644)" fill="#ffd3ab"/>
        <path id="Trazado_71206" data-name="Trazado 71206" d="M2093.462,1137.248c-4.612-2.449-9.2-4.93-13.832-7.344-3.191-1.671-7.177-4.767-10.913-4.914-3.351-.124-7.156,2.73-10.1,4.123-5.666,2.673-11.289,5.44-16.946,8.132a4.541,4.541,0,0,0-2.8,4.83v.009h18.485q5.589-2.691,11.23-5.273,5.1,2.593,10.167,5.274h17.43A5.37,5.37,0,0,0,2093.462,1137.248Z" transform="translate(4.868 49.927)" fill="#ffd3ab"/>
        <path id="Trazado_71207" data-name="Trazado 71207" d="M2192.283,1072.79v17.5q-17.638-8.67-35.2-17.5h-17.974a5.3,5.3,0,0,0,2.72,4.839q25.143,12.717,50.449,25.109v20.646q-50.981-25-101.676-50.593h-33.625a5.307,5.307,0,0,0,2.711,4.875q66.093,33.447,132.589,66.07v3.15H2203.4V1072.79Z" transform="translate(6.538 45.126)" fill="#ffd3ab"/>
        <path id="Trazado_71208" data-name="Trazado 71208" d="M2197.725,1072.79v74.1h11.114v-74.1Z" transform="translate(19.483 45.126)" fill="#ffd3ab"/>
        <path id="Trazado_71209" data-name="Trazado 71209" d="M2074.2,1035.977c-22.035-9.921-43.584-20.9-65.515-31.043h-22.735v.012a4.39,4.39,0,0,0,2.832,4.831c14.546,6.464,28.868,13.419,43.2,20.346,6.8,3.288,13.6,6.578,20.433,9.807,6.092,2.878,12.788,7.3,19.328,8.877,4.971,1.2,7.911-1.124,12.534-3.46,7.8-3.94,15.531-8,23.249-12.092,14.8-7.843,29.532-15.815,44.425-23.484a5.33,5.33,0,0,0,2.718-4.835h-21.211C2113.708,1015.293,2094.134,1025.988,2074.2,1035.977Z" transform="translate(0 38.885)" fill="#ffd3ab"/>
        <path id="Trazado_71210" data-name="Trazado 71210" d="M2041.669,1009.775c5.657,2.691,11.28,5.46,16.946,8.131,2.948,1.389,6.749,4.247,10.1,4.12,3.736-.142,7.722-3.24,10.912-4.906,4.629-2.417,9.222-4.9,13.833-7.347a5.376,5.376,0,0,0,2.714-4.839h-17.43q-5.065,2.683-10.168,5.274-5.638-2.591-11.23-5.274h-18.482v.009A4.542,4.542,0,0,0,2041.669,1009.775Z" transform="translate(4.869 38.885)" fill="#ffd3ab"/>
        <path id="Trazado_71211" data-name="Trazado 71211" d="M2192.284,1008.086q-66.494,32.623-132.589,66.071a5.3,5.3,0,0,0-2.715,4.875h33.628q50.7-25.587,101.676-50.594v20.648q-25.3,12.391-50.449,25.108a5.3,5.3,0,0,0-2.72,4.84h17.974q17.559-8.829,35.2-17.5v17.5H2203.4v-74.1h-11.114Z" transform="translate(6.538 38.885)" fill="#ffd3ab"/>
        <path id="Trazado_71212" data-name="Trazado 71212" d="M2197.725,1079.031h11.114v-74.1h-11.114Z" transform="translate(19.483 38.885)" fill="#ffd3ab"/>
        <path id="Trazado_71213" data-name="Trazado 71213" d="M2052.415,973.662c-6.829,3.229-13.631,6.519-20.433,9.806-14.334,6.926-28.656,13.881-43.2,20.346a4.391,4.391,0,0,0-2.832,4.831v.012h22.734c21.932-10.143,43.481-21.118,65.518-31.039,19.934,9.986,39.508,20.681,59.256,31.04h21.211a5.33,5.33,0,0,0-2.718-4.834c-14.892-7.669-29.625-15.641-44.426-23.485-7.717-4.09-15.45-8.154-23.245-12.092-4.623-2.336-7.564-4.658-12.535-3.457C2065.2,966.36,2058.507,970.783,2052.415,973.662Z" transform="translate(0 35.163)" fill="#ffd3ab"/>
        <path id="Trazado_71214" data-name="Trazado 71214" d="M2057.349,1006.373q5.588-2.689,11.23-5.273,5.1,2.6,10.168,5.274h17.43a5.375,5.375,0,0,0-2.714-4.839c-4.612-2.448-9.2-4.93-13.832-7.344-3.191-1.67-7.177-4.768-10.913-4.914-3.351-.122-7.156,2.73-10.1,4.124-5.666,2.673-11.289,5.44-16.946,8.132a4.543,4.543,0,0,0-2.8,4.831v.009h18.484Z" transform="translate(4.868 37.445)" fill="#ffd3ab"/>
        <path id="Trazado_71215" data-name="Trazado 71215" d="M2192.283,954.578q-17.638-8.668-35.2-17.5h-17.974a5.3,5.3,0,0,0,2.72,4.84q25.143,12.717,50.449,25.108v20.647q-50.981-25.005-101.676-50.594h-33.625a5.3,5.3,0,0,0,2.711,4.875q66.093,33.454,132.589,66.071v3.15H2203.4v-74.1h-11.114Z" transform="translate(6.538 32.644)" fill="#ffd3ab"/>
        <path id="Trazado_71216" data-name="Trazado 71216" d="M2197.725,1011.175h11.114v-74.1h-11.114Z" transform="translate(19.483 32.644)" fill="#ffd3ab"/>
        <path id="Trazado_71217" data-name="Trazado 71217" d="M2074.2,900.265c-22.035-9.921-43.584-20.9-65.515-31.042h-22.735v.012a4.391,4.391,0,0,0,2.832,4.831c14.546,6.466,28.868,13.418,43.2,20.346,6.8,3.288,13.6,6.578,20.433,9.8,6.092,2.88,12.788,7.3,19.328,8.878,4.971,1.195,7.911-1.125,12.534-3.462,7.8-3.938,15.531-8,23.249-12.089,14.8-7.844,29.532-15.816,44.425-23.485a5.33,5.33,0,0,0,2.718-4.835h-21.211C2113.708,879.58,2094.134,890.276,2074.2,900.265Z" transform="translate(0 26.404)" fill="#ffd3ab"/>
        <path id="Trazado_71218" data-name="Trazado 71218" d="M2041.669,874.063c5.657,2.692,11.28,5.46,16.946,8.133,2.948,1.388,6.749,4.247,10.1,4.119,3.736-.142,7.722-3.239,10.912-4.905,4.629-2.419,9.222-4.9,13.833-7.349a5.372,5.372,0,0,0,2.714-4.837h-17.43q-5.065,2.683-10.168,5.273-5.638-2.59-11.23-5.273h-18.482v.005A4.543,4.543,0,0,0,2041.669,874.063Z" transform="translate(4.868 26.404)" fill="#ffd3ab"/>
        <path id="Trazado_71219" data-name="Trazado 71219" d="M2192.284,872.374q-66.494,32.623-132.589,66.07a5.305,5.305,0,0,0-2.715,4.875h33.628q50.7-25.583,101.676-50.593v20.647q-25.3,12.391-50.449,25.109a5.3,5.3,0,0,0-2.72,4.837h17.974q17.559-8.827,35.2-17.5v17.5H2203.4v-74.1h-11.114Z" transform="translate(6.538 26.404)" fill="#ffd3ab"/>
        <path id="Trazado_71220" data-name="Trazado 71220" d="M2197.725,943.319h11.114v-74.1h-11.114Z" transform="translate(19.483 26.404)" fill="#ffd3ab"/>
        <path id="Trazado_71221" data-name="Trazado 71221" d="M2052.415,837.951c-6.829,3.229-13.631,6.519-20.433,9.8-14.334,6.927-28.656,13.881-43.2,20.346a4.392,4.392,0,0,0-2.832,4.832v.008h22.735c21.932-10.143,43.481-21.119,65.518-31.039,19.933,9.99,39.507,20.685,59.255,31.045h21.211a5.33,5.33,0,0,0-2.718-4.834c-14.892-7.669-29.625-15.641-44.426-23.486-7.717-4.089-15.45-8.153-23.245-12.091-4.623-2.336-7.564-4.658-12.535-3.457C2065.2,830.648,2058.507,835.071,2052.415,837.951Z" transform="translate(0 22.681)" fill="#ffd3ab"/>
        <path id="Trazado_71222" data-name="Trazado 71222" d="M2057.349,870.662q5.588-2.691,11.23-5.273,5.1,2.6,10.168,5.274h17.43a5.375,5.375,0,0,0-2.714-4.839c-4.612-2.448-9.2-4.93-13.832-7.343-3.191-1.671-7.177-4.768-10.913-4.914-3.351-.123-7.156,2.73-10.1,4.124-5.666,2.673-11.289,5.439-16.946,8.132a4.543,4.543,0,0,0-2.8,4.831v.009h18.484Z" transform="translate(4.868 24.963)" fill="#ffd3ab"/>
        <path id="Trazado_71223" data-name="Trazado 71223" d="M2192.283,818.867q-17.638-8.668-35.2-17.5h-17.974a5.3,5.3,0,0,0,2.72,4.84q25.143,12.717,50.449,25.108V851.96q-50.981-25-101.676-50.593h-33.625a5.307,5.307,0,0,0,2.711,4.875q66.093,33.454,132.589,66.071v3.15H2203.4v-74.1h-11.114Z" transform="translate(6.538 20.163)" fill="#ffd3ab"/>
        <path id="Trazado_71224" data-name="Trazado 71224" d="M2197.725,875.464h11.114v-74.1h-11.114Z" transform="translate(19.483 20.163)" fill="#ffd3ab"/>
        <path id="Trazado_71225" data-name="Trazado 71225" d="M2074.2,764.555c-22.035-9.921-43.584-20.9-65.515-31.042h-22.735v.012a4.392,4.392,0,0,0,2.832,4.832c14.546,6.466,28.868,13.418,43.2,20.346,6.8,3.287,13.6,6.577,20.433,9.8,6.092,2.88,12.788,7.3,19.328,8.877,4.971,1.2,7.911-1.124,12.534-3.46,7.8-3.939,15.531-8,23.249-12.09,14.8-7.844,29.532-15.816,44.425-23.485a5.33,5.33,0,0,0,2.718-4.835h-21.211C2113.708,743.87,2094.134,754.566,2074.2,764.555Z" transform="translate(0 13.922)" fill="#ffd3ab"/>
        <path id="Trazado_71226" data-name="Trazado 71226" d="M2041.669,738.353c5.657,2.692,11.28,5.46,16.946,8.132,2.948,1.389,6.749,4.248,10.1,4.12,3.736-.142,7.722-3.239,10.912-4.906,4.629-2.418,9.222-4.9,13.833-7.348a5.375,5.375,0,0,0,2.714-4.839h-17.43q-5.065,2.683-10.168,5.274-5.638-2.591-11.23-5.274h-18.482v.009A4.543,4.543,0,0,0,2041.669,738.353Z" transform="translate(4.869 13.922)" fill="#ffd3ab"/>
        <path id="Trazado_71227" data-name="Trazado 71227" d="M2192.284,736.663q-66.494,32.623-132.589,66.071a5.305,5.305,0,0,0-2.715,4.875h33.628q50.7-25.586,101.676-50.593v20.646q-25.3,12.391-50.449,25.108a5.3,5.3,0,0,0-2.72,4.84h17.974q17.559-8.827,35.2-17.5v17.5H2203.4v-74.1h-11.114Z" transform="translate(6.538 13.922)" fill="#ffd3ab"/>
        <path id="Trazado_71228" data-name="Trazado 71228" d="M2197.725,807.609h11.114v-74.1h-11.114Z" transform="translate(19.483 13.922)" fill="#ffd3ab"/>
        <path id="Trazado_71229" data-name="Trazado 71229" d="M2052.415,702.241c-6.829,3.228-13.631,6.518-20.433,9.8-14.334,6.927-28.656,13.881-43.2,20.346a4.392,4.392,0,0,0-2.832,4.832v.008h22.735c21.932-10.143,43.481-21.119,65.518-31.039,19.933,9.989,39.507,20.685,59.255,31.043h21.211a5.329,5.329,0,0,0-2.718-4.835c-14.892-7.669-29.625-15.641-44.426-23.485-7.717-4.089-15.45-8.151-23.245-12.089-4.623-2.337-7.564-4.659-12.535-3.458C2065.2,694.937,2058.507,699.36,2052.415,702.241Z" transform="translate(0 10.199)" fill="#ffd3ab"/>
        <path id="Trazado_71230" data-name="Trazado 71230" d="M2057.349,734.952q5.588-2.691,11.23-5.273,5.1,2.593,10.168,5.273h17.43a5.37,5.37,0,0,0-2.714-4.838c-4.612-2.449-9.2-4.93-13.832-7.343-3.191-1.671-7.177-4.768-10.913-4.914-3.351-.123-7.156,2.73-10.1,4.123-5.666,2.673-11.289,5.44-16.946,8.132a4.541,4.541,0,0,0-2.8,4.83v.009h18.484Z" transform="translate(4.868 12.482)" fill="#ffd3ab"/>
        <path id="Trazado_71231" data-name="Trazado 71231" d="M2192.283,683.157q-17.638-8.67-35.2-17.5h-17.974a5.3,5.3,0,0,0,2.72,4.839q25.143,12.717,50.449,25.109V716.25q-50.981-25-101.676-50.593h-33.625a5.307,5.307,0,0,0,2.711,4.875q66.093,33.447,132.589,66.07v3.151H2203.4v-74.1h-11.114Z" transform="translate(6.538 7.681)" fill="#ffd3ab"/>
        <path id="Trazado_71232" data-name="Trazado 71232" d="M2197.725,739.753h11.114v-74.1h-11.114Z" transform="translate(19.483 7.681)" fill="#ffd3ab"/>
        <path id="Trazado_71280" data-name="Trazado 71280" d="M2298.655,666.535q-34.451-3.1-68.9-6.2v-8.25h-12.5V904.011h12.5v-8.023q34.448-3.094,68.9-6.2v14.22h12.5V652.085h-12.5Zm0,7.539V882.252q-8.357.75-16.714,1.5V672.571q8.36.75,16.714,1.5Zm-25.05-2.253V884.5q-9.4.846-18.792,1.686V670.133Zm-27.132-2.439V886.945q-8.358.75-16.714,1.5V667.877Z" transform="translate(21.279 21.253)" fill="#ffd3ab"/>
        <path id="Trazado_71281" data-name="Trazado 71281" d="M2298.655,896.365v15.3q-34.451-3.281-68.9-6.565v-8.736h-12.5v266.747h12.5v-8.5q34.448-3.276,68.9-6.561v15.056h12.5V896.365Zm0,23.283v220.423q-8.357.8-16.714,1.592V918.056Zm-25.05-2.386v225.2q-9.4.9-18.792,1.784V915.474l18.792,1.786Zm-27.132-2.584v230.364l-16.714,1.591V913.088Q2238.114,913.882,2246.473,914.678Z" transform="translate(21.279 28.9)" fill="#ffd3ab"/>
      </g>
    </g>
    <g id="Grupo_28531" data-name="Grupo 28531" transform="translate(-2329.441 -685.801)" opacity="0.073">
      <path id="Trazado_71175" data-name="Trazado 71175" d="M2329.441,665.657h10.178V649.631q16.152,7.938,32.231,16.026h16.46a4.852,4.852,0,0,0-2.486-4.432q-23.027-11.646-46.2-22.993V619.324q46.686,22.9,93.111,46.333h30.789a4.861,4.861,0,0,0-2.487-4.464q-60.524-30.632-121.418-60.506V597.8h-10.178Z" fill="#ffd3ab"/>
      <path id="Trazado_71177-2" data-name="Trazado 71177" d="M2453.747,705.085c20.179,9.085,39.912,19.136,60,28.425h20.817v-.01a4.023,4.023,0,0,0-2.593-4.425c-13.323-5.918-26.439-12.286-39.562-18.63-6.233-3.006-12.461-6.024-18.715-8.979-5.579-2.638-11.712-6.689-17.7-8.127-4.552-1.094-7.245,1.03-11.478,3.17-7.138,3.607-14.22,7.326-21.288,11.072-13.553,7.183-27.046,14.484-40.683,21.507a4.874,4.874,0,0,0-2.489,4.428h19.425C2417.564,724.027,2435.489,714.232,2453.747,705.085Z" fill="#ffd3ab"/>
      <path id="Trazado_71178-2" data-name="Trazado 71178" d="M2479.076,729.08c-5.181-2.465-10.33-5-15.519-7.447-2.7-1.276-6.181-3.889-9.25-3.776-3.421.134-7.072,2.97-9.993,4.5-4.238,2.21-8.445,4.482-12.668,6.725a4.918,4.918,0,0,0-2.486,4.43h15.962q4.635-2.457,9.312-4.829,5.161,2.375,10.284,4.829h16.925V733.5A4.16,4.16,0,0,0,2479.076,729.08Z" fill="#ffd3ab"/>
      <path id="Trazado_71179-2" data-name="Trazado 71179" d="M2339.619,711.989V693.081q23.172-11.348,46.205-22.993a4.856,4.856,0,0,0,2.486-4.431h-16.46q-16.082,8.082-32.231,16.026V665.657h-10.178v67.855h10.178v-2.886q60.893-29.875,121.418-60.505a4.861,4.861,0,0,0,2.487-4.464H2432.73Q2386.3,689.086,2339.619,711.989Z" fill="#ffd3ab"/>
      <path id="Trazado_71181-2" data-name="Trazado 71181" d="M2473.694,765.56c6.255-2.957,12.483-5.97,18.712-8.979,13.126-6.345,26.242-12.713,39.564-18.633a4.024,4.024,0,0,0,2.593-4.425v-.011h-20.819c-20.085,9.289-39.819,19.34-60,28.425-18.255-9.144-36.18-18.939-54.265-28.425h-19.424a4.874,4.874,0,0,0,2.489,4.428c13.637,7.023,27.129,14.324,40.683,21.508,7.068,3.745,14.15,7.465,21.288,11.072,4.233,2.139,6.926,4.264,11.478,3.169C2461.982,772.248,2468.115,768.2,2473.694,765.56Z" fill="#ffd3ab"/>
      <path id="Trazado_71182-2" data-name="Trazado 71182" d="M2464.718,733.512q-5.12,2.465-10.284,4.83-4.676-2.379-9.312-4.83H2429.16a4.921,4.921,0,0,0,2.486,4.431c4.223,2.242,8.43,4.515,12.668,6.729,2.921,1.527,6.572,4.362,9.993,4.493,3.071.117,6.555-2.5,9.251-3.773,5.189-2.449,10.338-4.98,15.518-7.447a4.161,4.161,0,0,0,2.567-4.425v-.008h-16.925Z" fill="#ffd3ab"/>
      <path id="Trazado_71183-2" data-name="Trazado 71183" d="M2329.441,801.368h10.178V785.342q16.152,7.938,32.231,16.026h16.46a4.856,4.856,0,0,0-2.486-4.432q-23.027-11.646-46.2-22.993V755.036q46.686,22.9,93.111,46.332h30.789a4.861,4.861,0,0,0-2.487-4.464q-60.524-30.632-121.418-60.506v-2.886h-10.178Z" fill="#ffd3ab"/>
      <path id="Trazado_71185-2" data-name="Trazado 71185" d="M2453.747,840.795c20.179,9.085,39.912,19.136,60,28.425h20.817v-.011a4.023,4.023,0,0,0-2.593-4.425c-13.323-5.917-26.439-12.284-39.562-18.628-6.229-3.01-12.457-6.023-18.712-8.979-5.582-2.638-11.715-6.689-17.705-8.127-4.552-1.1-7.245,1.029-11.478,3.169-7.138,3.607-14.22,7.327-21.288,11.072-13.553,7.184-27.046,14.485-40.683,21.508a4.875,4.875,0,0,0-2.489,4.427h19.425C2417.564,859.737,2435.489,849.943,2453.747,840.795Z" fill="#ffd3ab"/>
      <path id="Trazado_71186-2" data-name="Trazado 71186" d="M2479.076,864.79c-5.181-2.465-10.33-5-15.519-7.447-2.7-1.276-6.181-3.889-9.25-3.776-3.421.134-7.072,2.97-9.993,4.5-4.238,2.21-8.445,4.483-12.668,6.725a4.921,4.921,0,0,0-2.486,4.431h15.962q4.635-2.456,9.312-4.83,5.161,2.375,10.284,4.829h16.925v-.008A4.16,4.16,0,0,0,2479.076,864.79Z" fill="#ffd3ab"/>
      <path id="Trazado_71187-2" data-name="Trazado 71187" d="M2339.619,847.7V828.791q23.172-11.348,46.205-22.992a4.856,4.856,0,0,0,2.486-4.432h-16.46q-16.082,8.083-32.231,16.026V801.367h-10.178v67.856h10.178v-2.886q60.893-29.877,121.418-60.506a4.861,4.861,0,0,0,2.487-4.464H2432.73Q2386.3,824.8,2339.619,847.7Z" fill="#ffd3ab"/>
      <path id="Trazado_71189-2" data-name="Trazado 71189" d="M2473.694,901.27c6.255-2.956,12.483-5.969,18.712-8.979,13.126-6.345,26.242-12.712,39.564-18.633a4.023,4.023,0,0,0,2.593-4.424v-.011h-20.819c-20.085,9.288-39.819,19.339-60,28.424-18.255-9.144-36.18-18.939-54.265-28.424h-19.424a4.874,4.874,0,0,0,2.489,4.428c13.637,7.023,27.129,14.324,40.683,21.507,7.068,3.746,14.15,7.465,21.288,11.072,4.233,2.139,6.926,4.264,11.478,3.17C2461.982,907.958,2468.115,903.907,2473.694,901.27Z" fill="#ffd3ab"/>
      <path id="Trazado_71190-2" data-name="Trazado 71190" d="M2464.718,869.223q-5.12,2.465-10.284,4.829-4.676-2.378-9.312-4.829H2429.16a4.92,4.92,0,0,0,2.486,4.43c4.223,2.243,8.431,4.515,12.668,6.73,2.921,1.526,6.572,4.362,9.993,4.492,3.071.117,6.555-2.5,9.251-3.772,5.189-2.449,10.338-4.98,15.518-7.448a4.16,4.16,0,0,0,2.567-4.424v-.008h-16.925Z" fill="#ffd3ab"/>
      <path id="Trazado_71191-2" data-name="Trazado 71191" d="M2329.441,937.078h10.178V921.052q16.152,7.939,32.231,16.026h16.46a4.853,4.853,0,0,0-2.491-4.43q-23.027-11.646-46.2-22.994V890.746q46.686,22.9,93.111,46.332h30.794a4.861,4.861,0,0,0-2.487-4.464q-60.524-30.63-121.418-60.505v-2.886h-10.178Z" fill="#ffd3ab"/>
      <path id="Trazado_71193-2" data-name="Trazado 71193" d="M2453.747,976.506c20.179,9.086,39.912,19.136,60,28.425h20.817v-.011a4.022,4.022,0,0,0-2.593-4.424c-13.323-5.917-26.439-12.285-39.562-18.629-6.229-3.011-12.457-6.024-18.712-8.98-5.582-2.636-11.715-6.687-17.705-8.126-4.552-1.1-7.245,1.029-11.478,3.169-7.138,3.607-14.22,7.327-21.288,11.073-13.553,7.183-27.046,14.484-40.683,21.507a4.874,4.874,0,0,0-2.489,4.427h19.425C2417.564,995.448,2435.489,985.654,2453.747,976.506Z" fill="#ffd3ab"/>
      <path id="Trazado_71194-2" data-name="Trazado 71194" d="M2479.076,1000.5c-5.181-2.464-10.33-5-15.519-7.447-2.7-1.276-6.181-3.888-9.25-3.776-3.421.13-7.072,2.967-9.993,4.493-4.238,2.217-8.445,4.49-12.668,6.732a4.921,4.921,0,0,0-2.486,4.431h15.962q4.635-2.457,9.312-4.83,5.161,2.375,10.284,4.829h16.925v-.005A4.161,4.161,0,0,0,2479.076,1000.5Z" fill="#ffd3ab"/>
      <path id="Trazado_71195-2" data-name="Trazado 71195" d="M2339.619,983.411V964.5q23.172-11.346,46.205-22.992a4.852,4.852,0,0,0,2.486-4.432h-16.46q-16.082,8.083-32.231,16.026V937.078h-10.178v67.856h10.178v-2.886q60.893-29.875,121.418-60.506a4.861,4.861,0,0,0,2.487-4.464H2432.73Q2386.3,960.509,2339.619,983.411Z" fill="#ffd3ab"/>
      <path id="Trazado_71197-2" data-name="Trazado 71197" d="M2473.694,1036.982c6.255-2.957,12.483-5.97,18.712-8.981,13.126-6.343,26.242-12.712,39.564-18.632a4.022,4.022,0,0,0,2.593-4.424v-.011h-20.819c-20.085,9.289-39.819,19.34-60,28.425-18.255-9.144-36.18-18.939-54.265-28.425h-19.424a4.874,4.874,0,0,0,2.489,4.428c13.637,7.023,27.129,14.324,40.683,21.507,7.068,3.746,14.15,7.466,21.288,11.073,4.233,2.139,6.926,4.264,11.478,3.169C2461.982,1043.669,2468.115,1039.618,2473.694,1036.982Z" fill="#ffd3ab"/>
      <path id="Trazado_71198-2" data-name="Trazado 71198" d="M2464.718,1004.934q-5.12,2.465-10.284,4.83-4.676-2.379-9.312-4.83H2429.16a4.922,4.922,0,0,0,2.486,4.431c4.223,2.242,8.43,4.515,12.668,6.729,2.921,1.526,6.572,4.362,9.993,4.493,3.071.116,6.555-2.5,9.251-3.773,5.189-2.449,10.338-4.98,15.518-7.447a4.162,4.162,0,0,0,2.567-4.425v-.008h-16.925Z" fill="#ffd3ab"/>
      <path id="Trazado_71199-2" data-name="Trazado 71199" d="M2329.441,1072.79h10.178v-16.026q16.152,7.938,32.231,16.026h16.46a4.852,4.852,0,0,0-2.486-4.432q-23.027-11.646-46.2-22.993v-18.908q46.686,22.9,93.111,46.333h30.789a4.861,4.861,0,0,0-2.487-4.464q-60.524-30.632-121.418-60.506v-2.886h-10.178Z" fill="#ffd3ab"/>
      <path id="Trazado_71201-2" data-name="Trazado 71201" d="M2531.97,1136.21c-13.322-5.92-26.438-12.288-39.561-18.632-6.233-3.006-12.461-6.024-18.715-8.979-5.579-2.638-11.712-6.689-17.7-8.127-4.552-1.094-7.245,1.03-11.478,3.17-7.138,3.607-14.22,7.326-21.288,11.072-13.553,7.183-27.046,14.484-40.683,21.507a4.875,4.875,0,0,0-2.489,4.427h19.425c18.085-9.485,36.01-19.28,54.268-28.427,20.179,9.085,39.912,19.136,60,28.425h20.817v-.011A4.022,4.022,0,0,0,2531.97,1136.21Z" fill="#ffd3ab"/>
      <path id="Trazado_71202-2" data-name="Trazado 71202" d="M2479.076,1136.213c-5.181-2.465-10.33-5-15.519-7.447-2.7-1.276-6.181-3.889-9.25-3.776-3.421.134-7.072,2.97-9.993,4.5-4.238,2.21-8.445,4.482-12.668,6.725a4.918,4.918,0,0,0-2.486,4.43h15.962q4.635-2.457,9.312-4.829,5.161,2.375,10.284,4.829h16.925v-.008A4.16,4.16,0,0,0,2479.076,1136.213Z" fill="#ffd3ab"/>
      <path id="Trazado_71203-2" data-name="Trazado 71203" d="M2461.037,1077.254a4.861,4.861,0,0,0,2.487-4.464H2432.73q-46.428,23.431-93.111,46.332v-18.908q23.172-11.347,46.205-22.993a4.856,4.856,0,0,0,2.486-4.431h-16.46q-16.082,8.082-32.231,16.026V1072.79h-10.178v67.855h10.178v-2.886Q2400.512,1107.884,2461.037,1077.254Z" fill="#ffd3ab"/>
    </g>
  </g>
</svg>
